<?xml version="1.0" standalone="no"?>
<!DOCTYPE svg PUBLIC "-//W3C//DTD SVG 20010904//EN"
 "http://www.w3.org/TR/2001/REC-SVG-20010904/DTD/svg10.dtd">
<svg version="1.0" xmlns="http://www.w3.org/2000/svg"
 width="500.000000pt" height="500.000000pt" viewBox="0 0 500.000000 500.000000"
 preserveAspectRatio="xMidYMid meet">
<metadata>
Created by potrace 1.14, written by Peter Selinger 2001-2017
</metadata>
<g transform="translate(0.000000,500.000000) scale(0.100000,-0.100000)"
fill="#000000" stroke="none">
<path d="M4048 3048 c5 -7 12 -24 14 -38 3 -20 5 -18 9 13 4 32 2 37 -14 37
-14 0 -17 -3 -9 -12z"/>
<path d="M4101 3025 c0 -35 1 -37 10 -17 6 15 5 30 -1 40 -7 13 -9 8 -9 -23z"/>
<path d="M4146 3023 c10 -40 14 -41 14 -5 0 18 -5 32 -10 32 -6 0 -8 -11 -4
-27z"/>
<path d="M4127 3023 c-4 -3 -7 -11 -7 -17 0 -6 5 -5 12 2 6 6 9 14 7 17 -3 3
-9 2 -12 -2z"/>
<path d="M1010 2834 c-56 -10 -70 -15 -99 -40 -65 -54 -59 -157 11 -189 18 -8
70 -24 115 -36 45 -11 89 -29 98 -39 23 -26 11 -58 -31 -77 -48 -23 -112 -4
-127 38 -11 27 -15 29 -68 29 l-58 0 9 -31 c24 -82 88 -119 202 -119 130 1
198 50 198 144 -1 79 -28 103 -160 136 -113 29 -143 56 -102 93 26 24 93 22
120 -3 12 -12 22 -25 22 -30 0 -6 25 -10 55 -10 33 0 55 4 55 11 0 29 -34 78
-68 96 -37 21 -125 34 -172 27z"/>
<path d="M1470 2831 c-126 -26 -196 -141 -170 -280 21 -115 100 -180 221 -181
76 0 122 16 163 57 45 44 66 99 66 176 0 122 -61 203 -171 226 -55 12 -58 12
-109 2z m126 -112 c13 -12 28 -44 35 -73 15 -67 -4 -140 -43 -169 -36 -27
-103 -25 -134 4 -45 42 -55 142 -22 214 25 56 116 69 164 24z"/>
<path d="M2463 2829 c-18 -5 -48 -26 -68 -46 l-35 -36 0 41 0 42 -55 0 -55 0
0 -225 0 -225 60 0 60 0 0 130 c0 95 4 139 15 159 17 35 77 64 117 59 l29 -5
-3 56 c-3 61 -10 66 -65 50z"/>
<path d="M2700 2831 c-86 -18 -140 -70 -166 -158 -30 -103 4 -212 84 -268 35
-24 55 -30 113 -33 106 -6 171 29 210 113 28 61 26 65 -36 65 -53 0 -55 -1
-69 -34 -17 -41 -42 -56 -93 -56 -47 1 -68 16 -88 63 -43 104 10 227 98 227
29 0 73 -33 82 -60 5 -17 15 -20 66 -20 32 0 59 2 59 4 0 21 -29 78 -53 103
-44 46 -132 69 -207 54z"/>
<path d="M3160 2830 c-90 -19 -150 -75 -170 -160 -14 -57 -8 -147 13 -183 44
-79 109 -117 202 -117 90 0 156 35 191 102 20 38 19 38 -32 38 -35 0 -54 -6
-76 -25 -23 -20 -41 -25 -83 -25 -47 0 -56 3 -79 31 -14 17 -26 41 -26 55 0
23 3 24 73 25 39 1 112 1 161 -1 l89 -2 -6 61 c-12 140 -126 229 -257 201z
m117 -117 c13 -15 23 -36 23 -45 0 -16 -11 -18 -100 -18 -89 0 -100 2 -100 18
0 24 28 61 54 73 39 16 99 3 123 -28z"/>
<path d="M1790 2658 c0 -196 12 -243 69 -272 63 -33 172 -14 213 38 18 21 18
21 18 -11 l0 -33 55 0 c37 0 55 4 56 13 1 21 1 310 0 375 l-1 62 -55 0 -55 0
0 -140 c0 -190 -18 -230 -103 -230 -64 0 -71 20 -77 204 l-5 161 -57 3 -58 3
0 -173z"/>
</g>
</svg>
